<svg xmlns="http://www.w3.org/2000/svg" xmlns:xlink="http://www.w3.org/1999/xlink" viewBox="0 0 1104 814"><defs><style>.cls-1{fill:none;}.cls-2,.cls-39{isolation:isolate;}.cls-3{opacity:0.9;}.cls-4{clip-path:url(#clip-path);}.cls-5{fill:url(#linear-gradient);}.cls-6{fill:url(#linear-gradient-2);}.cls-7{fill:url(#linear-gradient-3);}.cls-8{fill:url(#linear-gradient-4);}.cls-9{fill:url(#linear-gradient-5);}.cls-10{fill:url(#linear-gradient-6);}.cls-11{fill:url(#linear-gradient-7);}.cls-12{fill:#3c7726;}.cls-12,.cls-13,.cls-16,.cls-17,.cls-29,.cls-30,.cls-33,.cls-37{opacity:0.1;}.cls-13{fill:#fcff78;}.cls-14{fill:url(#linear-gradient-8);}.cls-15{fill:url(#linear-gradient-9);}.cls-16{fill:#5fb537;}.cls-17{fill:#6dce45;}.cls-18{fill:url(#linear-gradient-10);}.cls-19{fill:url(#linear-gradient-11);}.cls-20{fill:url(#linear-gradient-12);}.cls-21{fill:url(#linear-gradient-13);}.cls-22{fill:url(#linear-gradient-14);}.cls-23{fill:url(#linear-gradient-15);}.cls-24{fill:url(#linear-gradient-16);}.cls-25{fill:url(#linear-gradient-17);}.cls-26{fill:url(#linear-gradient-18);}.cls-27{fill:url(#linear-gradient-19);}.cls-28{fill:url(#linear-gradient-20);}.cls-29{fill:#4f9a37;}.cls-30{fill:#2d5e1b;}.cls-31{fill:url(#linear-gradient-21);}.cls-32{fill:url(#linear-gradient-22);}.cls-33{fill:#dae837;}.cls-34{fill:url(#linear-gradient-23);}.cls-35{fill:#e8b937;opacity:0.15;}.cls-36{fill:url(#linear-gradient-24);}.cls-37{fill:#274f16;}.cls-38{fill:#700f0c;}.cls-39{opacity:0.5;mix-blend-mode:overlay;}.cls-40{fill:#fffdfd;}.cls-41{fill:#e2e0e0;}.cls-42{fill:#c6c6c6;}.cls-43{fill:#a4a4a4;}.cls-44{fill:#d11e1e;}.cls-45{fill:#d81d1d;}</style><clipPath id="clip-path"><rect class="cls-1" x="0.24" y="205" width="1103.76" height="608.6"/></clipPath><linearGradient id="linear-gradient" x1="-9502.57" y1="310.37" x2="-9447.12" y2="310.37" gradientTransform="matrix(-1, 0, 0, 1, -8405.77, 0)" gradientUnits="userSpaceOnUse"><stop offset="0" stop-color="#5b684f"/><stop offset="1" stop-color="#507243"/></linearGradient><linearGradient id="linear-gradient-2" x1="-9435.36" y1="312.19" x2="-9227.01" y2="312.19" gradientTransform="matrix(-1, 0, 0, 1, -8405.77, 0)" gradientUnits="userSpaceOnUse"><stop offset="0" stop-color="#5b8975"/><stop offset="1" stop-color="#507243"/></linearGradient><linearGradient id="linear-gradient-3" x1="-9262.18" y1="312.77" x2="-9178.12" y2="312.77" xlink:href="#linear-gradient"/><linearGradient id="linear-gradient-4" x1="-9138.93" y1="333.25" x2="-9031.61" y2="333.25" xlink:href="#linear-gradient"/><linearGradient id="linear-gradient-5" x1="-9076.44" y1="343.65" x2="-8917.82" y2="343.65" xlink:href="#linear-gradient-2"/><linearGradient id="linear-gradient-6" x1="-8970.3" y1="383.76" x2="-8750.96" y2="383.76" xlink:href="#linear-gradient"/><linearGradient id="linear-gradient-7" x1="-9358.14" y1="583.47" x2="-9358.14" y2="308.32" gradientTransform="matrix(-1, 0, 0, 1, -8405.77, 0)" gradientUnits="userSpaceOnUse"><stop offset="0" stop-color="#6da100"/><stop offset="1" stop-color="#93c437"/></linearGradient><linearGradient id="linear-gradient-8" x1="-9224.57" y1="452.09" x2="-9224.57" y2="311.68" gradientTransform="matrix(-1, 0, 0, 1, -8405.77, 0)" gradientUnits="userSpaceOnUse"><stop offset="0" stop-color="#bda95c"/><stop offset="1" stop-color="#f5e9ab"/></linearGradient><linearGradient id="linear-gradient-9" x1="-9528.95" y1="634.68" x2="-9528.95" y2="405.56" gradientTransform="matrix(-1, 0, 0, 1, -8405.77, 0)" gradientUnits="userSpaceOnUse"><stop offset="0" stop-color="#7eba00"/><stop offset="1" stop-color="#dae837"/></linearGradient><linearGradient id="linear-gradient-10" x1="-9569.13" y1="695.81" x2="-9569.13" y2="462.78" xlink:href="#linear-gradient-8"/><linearGradient id="linear-gradient-11" x1="-8687.68" y1="340.15" x2="-8687.68" y2="385.83" gradientTransform="matrix(-1, 0, 0, 1, -8405.77, 0)" gradientUnits="userSpaceOnUse"><stop offset="0" stop-color="#668717"/><stop offset="1" stop-color="#454a3f"/></linearGradient><linearGradient id="linear-gradient-12" x1="-8586.33" y1="329.66" x2="-8586.33" y2="372.57" gradientTransform="matrix(-1, 0, 0, 1, -8405.77, 0)" gradientUnits="userSpaceOnUse"><stop offset="0" stop-color="#5b905e"/><stop offset="1" stop-color="#4f7220"/></linearGradient><linearGradient id="linear-gradient-13" x1="-8951.01" y1="401.25" x2="-8951.01" y2="461.83" gradientTransform="matrix(-1, 0, 0, 1, -8405.77, 0)" gradientUnits="userSpaceOnUse"><stop offset="0" stop-color="#68865e"/><stop offset="1" stop-color="#4f7220"/></linearGradient><linearGradient id="linear-gradient-14" x1="-9090.83" y1="445.54" x2="-9090.83" y2="483.12" gradientTransform="matrix(-1, 0, 0, 1, -8405.77, 0)" gradientUnits="userSpaceOnUse"><stop offset="0" stop-color="#5b745e"/><stop offset="1" stop-color="#4f7220"/></linearGradient><linearGradient id="linear-gradient-15" x1="-8403.93" y1="858.03" x2="-8595.15" y2="276.9" gradientTransform="matrix(-1, 0, 0, 1, -8405.77, 0)" gradientUnits="userSpaceOnUse"><stop offset="0" stop-color="#538e00"/><stop offset="0.2" stop-color="#569000"/><stop offset="0.37" stop-color="#619800"/><stop offset="0.53" stop-color="#73a400"/><stop offset="0.69" stop-color="#8cb501"/><stop offset="0.84" stop-color="#adca01"/><stop offset="0.99" stop-color="#d4e502"/><stop offset="1" stop-color="#d7e702"/></linearGradient><linearGradient id="linear-gradient-16" x1="-9385.91" y1="590.46" x2="-9385.91" y2="648.43" gradientTransform="matrix(-1, 0, 0, 1, -8405.77, 0)" gradientUnits="userSpaceOnUse"><stop offset="0" stop-color="#4d9c20"/><stop offset="1" stop-color="#615a16"/></linearGradient><linearGradient id="linear-gradient-17" x1="-8819.7" y1="-91.23" x2="-8819.7" y2="-6.31" gradientTransform="matrix(-0.99, -0.15, -0.15, 0.99, -7659.98, -694.29)" gradientUnits="userSpaceOnUse"><stop offset="0" stop-color="#5bb826"/><stop offset="1" stop-color="#8e8320"/></linearGradient><linearGradient id="linear-gradient-18" x1="-8439.37" y1="-274.41" x2="-8439.37" y2="-212.2" gradientTransform="matrix(-0.98, -0.21, -0.21, 0.98, -7366.78, -887.69)" gradientUnits="userSpaceOnUse"><stop offset="0" stop-color="#5ba126"/><stop offset="1" stop-color="#8e9920"/></linearGradient><linearGradient id="linear-gradient-19" x1="-9193" y1="652.67" x2="-9193" y2="707.3" xlink:href="#linear-gradient-16"/><linearGradient id="linear-gradient-20" x1="-9703.83" y1="975.03" x2="-9665.55" y2="592.04" gradientTransform="matrix(-1, 0, 0, 1, -8405.77, 0)" gradientUnits="userSpaceOnUse"><stop offset="0" stop-color="#538e00"/><stop offset="0.2" stop-color="#569001"/><stop offset="0.37" stop-color="#619706"/><stop offset="0.53" stop-color="#73a30d"/><stop offset="0.68" stop-color="#8bb417"/><stop offset="0.83" stop-color="#abc924"/><stop offset="0.97" stop-color="#d2e334"/><stop offset="1" stop-color="#dae837"/></linearGradient><linearGradient id="linear-gradient-21" x1="-9862.46" y1="782.37" x2="-9862.46" y2="599.19" xlink:href="#linear-gradient-8"/><linearGradient id="linear-gradient-22" x1="-8464.76" y1="610.06" x2="-8464.76" y2="718.49" gradientTransform="matrix(-1, 0, 0, 1, -8405.77, 0)" gradientUnits="userSpaceOnUse"><stop offset="0" stop-color="#2f8720"/><stop offset="1" stop-color="#1d5212"/></linearGradient><linearGradient id="linear-gradient-23" x1="-8567.33" y1="667.84" x2="-8567.33" y2="741.09" gradientTransform="matrix(-1, 0, 0, 1, -8405.77, 0)" gradientUnits="userSpaceOnUse"><stop offset="0" stop-color="#236618"/><stop offset="1" stop-color="#1d4d12"/></linearGradient><linearGradient id="linear-gradient-24" x1="-8138.56" y1="804.94" x2="-8195.3" y2="587.28" gradientTransform="matrix(-1, 0, 0, 1, -8405.77, 0)" gradientUnits="userSpaceOnUse"><stop offset="0" stop-color="#457500"/><stop offset="0.31" stop-color="#487803"/><stop offset="0.58" stop-color="#53830b"/><stop offset="0.82" stop-color="#649419"/><stop offset="1" stop-color="#75a627"/></linearGradient></defs><title>grass-part_2</title><g class="cls-2"><g id="Layer_1" data-name="Layer 1"><g class="cls-3"><g class="cls-4"><path class="cls-5" d="M1096.69,319.7c0-5.89,1.79-12.86-8-12.59-.13-1.37-1.21-2.54-1.37-3.91-10.59,1.31-16.16-7.75-25.12-7.48-.59.67.08,1.4-.08,2.08-4-2.4-3.39-.67-6.1.7-1,.52-7,3.48-8.83,4.75-7.23,5-7.76,8.05-1.69,12.53C1052.82,321.16,1090.6,331.29,1096.69,319.7Z"/><path class="cls-6" d="M1026.43,320.53c3.87-5.56-7.38-17.06-13.31-18.35-4.56-1-8.05,1.61-13.21-1.38-3.46-2-3.19-10.09-9.39-5.32-2.57-1.64-5.73-2.22-8.76-3.37-.93-5.6-7.92-5.06-12.31-6.16-14-3.5-11.47-1.28-14.45,8.65-4.77.52-9.21,2.67-10.18,6.67-4.75-.22-9.78-.76-11.92,2.79a14.33,14.33,0,0,0-13.24-1.91c-2.19-5.65-17.17-13.79-24.59-14-.3,1.93-1.75,4-.95,6.39-6.38-9.84-16.19,2.73-23.37,3.7-.41,7.07-6,2-10.19,2.49-6.17.75-8.19,3.12-13.35,4.55-10.12,2.79-31.28,8.91-24.74,21.11,4.27,8,17.27,9.24,27.72,10.64,28.15,3.79,63.18,3.88,91.46.65,29.53-3.38,58.07-8.23,87.7-9.77a10.8,10.8,0,0,0,0-4.81C1028.19,323.53,1027.38,324.53,1026.43,320.53Z"/><path class="cls-7" d="M853.32,316.37c9.32-3.13-4.85-20.73-11-21.51a11.85,11.85,0,0,1-.1,2.1c-3.41-6.73-12.88-3.44-14.43,2.72-8.73-4.13-12.75.05-14.09,6.61-5.4-1.24-14.7-4-13.44,4.18-2-.37-4.88.59-6.85.21-1,6-11.5,1.74-16.39,4.85-13.5,8.57,5.93,16,15.23,16.61,16.8,1.19,33.78-4.3,49.94-5.14C848.43,326.67,861.83,327,853.32,316.37Z"/><path class="cls-8" d="M733.16,334.66c-1.51-7.22-10.3-6.7-16.11-9.15-2.46-1-6.93-10-10.59-2.57-6.33-3.38-11.18-1.8-16-2.33s-7.6-4.19-11.18-5.11c-8.76-2.26-20.86,6.21-27.29,1.75-4,4.81-9.73,7.56-13.66,11.45-6.41-1-10,4.54-11.66,8.91-4.42,11.89,10.56,14.43,23.61,13.65,18.63-1.11,41.23-1.84,58.46-8.29C715.83,340.3,721.73,336.17,733.16,334.66Z"/><path class="cls-9" d="M664.94,341.31c14.1-6.62-1.23-12.46-9.16-15.82-1.65-.7-4.45.71-6.16-.11-2.31-1.11-1.48-4.62-4.05-5.57-4.67-1.72-12.58-2.29-15.17,2.18-4.5-6.09-22.43-8.29-25.71-1.6-6.67,2.32-4.59,3.35-13,4-4.88.36-12.51-3-15.42,3.37-6.62-3.2-17.4-3.38-17.37,4.3-1.24.07-2.53.09-3.77.25-.18,3.86-2.45,6.72-3.37,10.56-5.3.26-10.78,0-16.11.25-.16.8.05,1.46-.18,2.25-3.57.2-7.32.11-10.89.25-1,5.65-12.25,9.9-12.51,15.66-.66,14.68,28.54,8.66,37.69,7.73a400.85,400.85,0,0,0,67.93-12.65c9.14-2.57,18.3-6.9,27.91-8.21,5.65-.77,11.78.72,17.33-.34C666.38,347.14,664.56,342,664.94,341.31Z"/><path class="cls-10" d="M564.13,357.94c-2.33-5.7-11.74-7.4-17.32-7.3-3.25.06-7.06,1.42-10,1.52-2.31.08-6-.59-8.28-.42-7.43.58-8.27,1.62-16.93-1.53-5.9-2.15-13-5.3-19.62-4.62,0,3.81-6.55,7-9.91,9.79-.89.75-3.39-.65-4.3.19s-1,3.93-1.18,4c-3.56,1.91-5.74,1.67-10.75,3.34-2.7.9-2,4.19-5.64,4.92-1.37.27-9.1-1.24-10.14-1.55-9.84-2.91-20.94-7.15-32.45-4.34.5.9.2,2.69,1,4-2.18-.46-6.67-1.41-9-.62-7.59,2.57-3.7,3.82-7.41,6.54-4.92,3.61-21.63,2.32-19.52,11.72-3.63.52-25.17,6.62-27.18,9.52-2.45,3.53,3.51,5.95.07,9.53-4.9,5.1-11.65.24-10.22,10,3.78,25.75,57.54-9.05,71.06-14.14,38-14.28,80.86-20.58,121.21-27.48C544,369.92,567.92,365.53,564.13,357.94Z"/><path class="cls-11" d="M324.47,476.07c8.87,11.54,24.77,18,40,23.52,150.67,54.82,316.21,78.92,481.08,83.16s329.62-10.89,492.56-31.83c74.39-9.56,220.35-27.93,246.13-99.64,8.73-24.26-3.71-42.51-26.34-56.5-45.74-28.28-133.16-39.19-171.78-47.3-166-34.87-338.84-45.35-509.75-35.79l-9.83.57q-55.43,3.34-110.47,9.46A2291.69,2291.69,0,0,0,415.18,386q-4.46,1.18-8.91,2.4c-24.74,6.74-50.24,14.32-68.55,29.48S310.62,458,324.47,476.07Z"/><path class="cls-12" d="M827.24,336.82s-26,20-27.49,36.16c64.15-22.45,194-39.91,281-20C980,349.29,804.33,389.19,810.44,389.19s329.91-49.88,566.65,16.21c71.79,87.29-273.4,108.49-273.4,108.49L804.33,459,685.2,497.68,463.73,520.13S614.94,432.84,728,407.9c-146.63,26.19-247.43,67.34-247.43,67.34S801.27,319.36,859.31,318.11C824.18,331.83,827.24,336.82,827.24,336.82Z"/><path class="cls-13" d="M415.18,386a91.65,91.65,0,0,0,8.84,9.45C906.67,257,1271.7,333.07,1271.7,333.07s-62.62-8.73-203.14-7.48c174.12,6.24,349.76,53.63,354.34,53.63S1369.44,358,1290,336.82c116.07,11.22,265.75,58.61,265.75,58.61l2.14-.66c-45.74-28.28-133.16-39.19-171.78-47.3-166-34.87-338.84-45.35-509.75-35.79l-9.83.57q-55.43,3.34-110.47,9.46A2291.69,2291.69,0,0,0,415.18,386Z"/><path class="cls-14" d="M786,447.8c15.27,12.47,13.75-6.24,13.75-6.24s-76.21-69.14,76.64-129.88l-9.83.57C812.56,332.14,715.43,387.2,786,447.8Z"/><path class="cls-15" d="M525.37,625.77c24,20.7,56.54,33.26,88.74,44.31C929.37,778.16,1296.87,780.35,1614,676c39.61-13,120-33.06,134.84-70.13,17-42.16-43.16-65.66-79.79-80a1532.91,1532.91,0,0,0-339.41-89.39c-78.32-11.33-157.76-16.82-237.24-19.37-40.52-1.3-81.43-1.75-122.3-.87q-4.9.1-9.81.23c-137.23,3.66-273.65,22.81-393.21,76.12-28.79,12.83-58.19,29.43-68.67,54.8C487.27,574.41,501.34,605.07,525.37,625.77Z"/><path class="cls-16" d="M1354.31,635.06c-9.56-14.25-24.6-29.33-38.4-40.93-7-5.92-15-9.27-20.71-16.44s-9.06-15.69-14.31-23.22c-16.07-23-38.81-41.79-64.3-58a492.46,492.46,0,0,0-127.44-57.62c-16.2-4.62-33.65-6.88-49.18-12.27,24-1.5,40.88,4.71,62,9.62,20.07,4.66,40.87,5.88,61.89,7.65,22,1.86,44.26-.36,66.44,1.87a276.69,276.69,0,0,1,59.87,12.95c-26.78-3.37-52.71-4-80-4-12.35,0-26.69-.87-37.31,3.33,9,2.83,18.07,2.47,27.66,6.72,6.56,2.91,15.57,4.59,22.78,5.44,15.84,1.86,34.47.63,51.42,1.12,49.18,1.41,100.92,13.18,145.78,29.24-54.85-7.46-109-16.76-165-15.08,65.31,0,133.43,19.95,192.9,40.49,11.89,4.11,26.57,8.59,36.35,15.86,6.63,4.92,40.12,29.81,36,39-2.77,6.11-22.36,8.06-29.13,9.41-16.5,3.29-27.9,5.09-42,12.47-18.49,9.65-39.77,8.75-60.48,14.18-14.6,3.83-21.92,13-36.78,14q10.86,6.49,21.38,13.36Z"/><path class="cls-17" d="M1244.34,566.06c-7.16-9-12.56-19.88-18.37-28.68-3.11-4.71-1.17-9.45-3.73-13.93-2.29-4-11.5-9.54-15.65-12.1-6.89-4.25-16.07-13.48-24.65-16.6-2.16-.79-6.55-.15-8.38-1.08-3-1.55-3.37-3.74-6.52-5.79-3.73-2.42-10.27-5.67-14.86-6.65-11.17-2.37-26.43-2.55-38.06-3.3-12.9-.83-26.91-2-39.75-1.81,9.83-9.56,44.9-4.56,59-3.3-16.71-12.87-39.45-5.67-59-11.72,7.5-3,14.93-2.82,23.36-3.26-8.42-5.55-12.41-5.94-22.21-8.82-6.77-2-11.81-7-17.71-9.2-15.35-5.76-36.82-4.41-53.48-5.88,6.72-3.11,13.63-2.38,20.12-4.41-9.17-4.18-23.38-.51-30.46-7.13,29.87-1.64,59.58,10.36,87.55,18.54,25.67,7.5,51.93,14.34,75.8,25.3a570.33,570.33,0,0,1,102.16,60.63c9.31,6.94,15.57,16.87,20.53,26.23,3.84,7.26,6.52,9.06-1,12.82-6.33,3.19-23.64.41-31.85,0a18,18,0,0,0,5.32,6Z"/><path class="cls-16" d="M1242.3,571.88s-123.21-40.74-258.64-43.23c74.33-6.65,178.2,0,178.2,0s-188.38-44.9-379.82-20c60.08,69,157.83,109.74,157.83,109.74Z"/><path class="cls-17" d="M756.58,486.24c-2.78,1.33,138.49-21.62,266.79-7.48C880.81,449.66,786.11,472.11,756.58,486.24Z"/><path class="cls-18" d="M970.13,416.22q-4.9.1-9.81.23c89.79,9.74,280.33,51.85,378.58,232.8h27.49S1290.08,442.31,970.13,416.22Z"/><path class="cls-19" d="M343.95,381.92c-3.41-3.56-9.15-3.26-11.71-6.12-3.57-4-1.73-13.08-10.38-13.11-1.07-4.36-4.54-7.74-9.08-5.64-.29-10.9-12.19-2.34-18.67-3.55-.33-5.41-5.21-14.86-11.94-9.55-1.46-5.45-7.58-4.82-9.07.54-1-8.63-11.74-1.31-11.28,4.48-4.3-1.19-13.26-5-12,2.54-2.7-.4-6.27.6-8.92-.17-3.31,7.72-19.27-1.53-20.88,9.56-2.24,15.46,35.6,13.88,44.76,14.67,19.9,1.71,36.77,4.9,55.75,8.67C326.51,385.44,336.46,388.06,343.95,381.92Z"/><path class="cls-20" d="M253.08,367c7.14-2.71,1.95-8.61-4.58-9.07-.08-3.72-2.49-6.47-6.62-6.95-.13-4.28-4-20.74-10.44-14.16.58-6.72-9.29-8.11-10.24-1.22,1-6.24-7.17-8.61-8.52-2.09-5.14-4.86-16.85-5.78-16,3.62-7.87.92-3.44,9.26-10.2,11.76-6.12,2.26-15.81-7.06-19.52,1-4.59-1.32-13.89-24.34-20.93-11.75-3.05-3.83-8.42-5.33-13.47-4.37-.16.9-.11,1.58-.23,2.51-5.28.59-10.77.63-16.08,1.19a24.3,24.3,0,0,1-.41,3.48c-2.62-1.13-5.87-.54-8.48-1.13,1.3,5.38-4.59,9.14-2.2,14.3,4.84,10.46,40,7.89,48.7,9.48,27.73,5.06,55.72,9.31,84,8.85C243.59,372.42,254.07,373.84,253.08,367Z"/><path class="cls-21" d="M464.41,419c8-.26,14-16.09,21.59-8.29,3.12-1.82,7.26-2,11-1.18-1.13-6.27,8.14-7.56,12.61-4.86,6.53-8.78,24.75,1.24,24.07,9.85,4.74-5,19.74,2,20.23,7.34,10.72-5.89,9.18,11.26,19.16.21,1.47-1.63.64-6.37,2.42-8.61,3.28-4.12,11.91-8.71,11.33.91a40.28,40.28,0,0,1,12.76-1.9c.29,5.22,4.26,8.13,10.08,7.41.21,2.87,1.19,6,1.22,8.84,11.66-.77,16.21-2.07,15,10.36-.6,5.93-1.4,12.89-7.85,15.93.32,1.32-.07,3.1.3,4.48-15.08,7.22-46.28-3.95-61.64-8.33-17.87-5.1-35-10.37-53.54-13.17-9-1.35-39.53-3.69-38.32-17.1C467,421.84,466.51,423.12,464.41,419Z"/><path class="cls-22" d="M648.64,462.09c-.25-8.92.22-14.88,12.11-12-1.07-8.17,22.46-4.43,22.69,3.62,5.3-.9,5.41,2.21,9,3.58,1.25.48,2.82,3.19,4,3.95s3.39-1.73,4.64-1.08c7.22,3.77,7.15,5.51,16.61,5.71,1,9.23,10.89,17.4-6,17.23-18.59-.19-51.8-4.6-63-19.9C648.93,464.27,649.59,465.12,648.64,462.09Z"/><path class="cls-23" d="M-984.22,645.54c2.7,30.08,6.54,60.38,17.61,88.86,13.35,34.33,36.84,64.94,64.28,91.65,123.37,120.11,315,158.4,495.18,180.57,137.08,16.87,275.87,28,413.78,17.94,154.59-11.3,305-49,456.72-78C566.72,926.82,671.3,911.06,776.83,906c51.37-2.47,103.36-2.44,153.41-13.12,41.43-8.83,80.53-24.79,118.72-41.69,15.58-6.89,31.61-14.36,42.07-26.82,12.3-14.66,15-34,16.11-52.31,2-32,8.11-83.52-5.95-113.69-14-30-62.53-49.42-92.35-65.53-29-15.67-58.79-30.05-89.15-43.39q-27.33-12-55.2-23-16-6.3-32.2-12.32-10.89-4.05-21.84-8L804,503.88q-6.31-2.24-12.63-4.44-5.06-1.77-10.13-3.51-4.69-1.62-9.38-3.2-5-1.69-10-3.36-5.25-1.76-10.52-3.5l-4.55-1.5-8.34-2.73q-6.9-2.24-13.82-4.45-8.37-2.68-16.78-5.31-7.29-2.29-14.58-4.53-11.68-3.6-23.4-7.09-9.06-2.71-18.13-5.36-8.31-2.43-16.65-4.81-14.51-4.16-29.06-8.16-22.85-6.3-45.82-12.25-12.74-3.31-25.52-6.51-24.56-6.14-49.23-11.9-20.82-4.87-41.72-9.46-39.41-8.68-79.07-16.39-37.8-7.36-75.78-13.87-51.87-8.91-104.1-16.28-40.55-5.71-81.19-10.54-159.8-19-321.24-24.68-163-6-325.44.22c-35.19,1.3-70.63,3.06-105.71,6.62-51.2,5.2-101.61,14.27-149.32,31.47-80.38,29-153.06,84.77-177.84,159.37C-989.58,558.89-988,602.75-984.22,645.54Z"/><path class="cls-24" d="M1015.28,617.1c1.89-5.28,2.54-10.37-3.28-12.91-1.94-.85-6.65,1-8.31-.16-2.08-1.43-.66-4.45-1.64-6-5.63-9.2-10.78-7-22.12-7.53-.15.7,0,1.3-.2,2a27.47,27.47,0,0,0-8.63-2q-.09.62-.24,1.23c-1.65-.59-4-.33-5.87-.56a15.82,15.82,0,0,0-1.24,7.13c-7.32-3.19-11.69,2.05-11.46,7.9-4.38.28-5.34,3.62-3.3,6.62-7,4.4-7.6,20.56-1.51,26,2.31,2,9.8,5.63,13,7.49,6.09,3.51,21.77,3.35,22.88-4.35,5.77,10.12,20.57.24,20.54-8.06a8.28,8.28,0,0,0,5.29-8.68C1015.23,626,1019.54,623,1015.28,617.1Z"/><path class="cls-25" d="M1145.47,627.42c3.2-3.22,5.72-10.6-.15-12.58,1.25-3.24-.9-5.08-5.11-5,1-4.38-3-14.52-8.95-7.64-8.27-17.28-18.69,6.42-26.88,10.25,1.49-4.53-6.85-15-10.7-9.39-.3-3.33-4.13-4.78-8.08-4,.38-4.87-7.73-7.9-10.91-3.33-2.29-4.63-9.51-5.42-14.68-3.57,3.43-7-5.07-7.71-11.81-8.69.38-5.68-14.5-15.91-16.48-8.63-7.84-1.75-11.67,1.39-9.47,7.51-8.09,1.35-9.49,11.22-10.44,17-4.49-.77-7.75,1.25-6.95,5.15-8,1-12-2.07-12.33,7.08-6.28-1.58-10.52.64-10.12,6-7.87-1.33-4.17,2.45-5.79,4.51s-6.53,7.9-6.9,11.06c-2.17,18.3,32.2,20.26,46.2,20.62a212.82,212.82,0,0,0,52-5c10.28-2.4,16.29-8.55,27-9.38,17.27-1.34,34.72-2.36,51.91-.79,2.66-3.35,2.32-7.6.46-11.19C1145.62,629.22,1144.9,631.45,1145.47,627.42Z"/><path class="cls-26" d="M972.12,647.4c1.81-6.44,3.83-14-6.53-16,1.26-4.74,3.26-11-5.19-11.27-.32-3.48-14.2-12.34-17.95-13.94a53.08,53.08,0,0,0-8.94-3.15c-9-2.08-6.61-1.83-9.72,7.06-9.43-1.75-6.22,7.45-9.22,11.8-1,1.46-5.78,4.22-7.74,5.82-2.77,2.27.56,4.85-4.88,4.66.77,1.76-.73,2.06,1.44,4-4.3,2.91-6.84,9.17-.27,11.48-4.82-.16-5.85,14.3,7.51,13.19,6.89-.57,5.44-2.66,12.87-.64,9.17,2.49,9.48,3.22,18.52,1.13C952.85,659,963.32,658,972.12,647.4Z"/><path class="cls-27" d="M810.94,692.34c2.33-3.22,5.78-6.21,4.72-10.33-.78-.25-1.25-.12-2-.31a10.51,10.51,0,0,0,2.84-6.38c-7.48-1.33.94-10.17-8.65-8.77.35-3.89-.35-9.32-5.65-4.74,3.23-5.43-8.52-6.41-12.64-7.7-9.68-3-8.74-1.63-9.4,7.81-6.86-1.2-6.72,4.36-6.48,8.58-2.49,1.61-2.47,1.55-3.25,4.68-7.43-3.82-12.11,5-12.45,9.9-.06.79,3.54,1.85,3.79,3.32.15.88-2.14,3.82-2.31,5-.63,4.29.16,8.49,4,11.1,6,4.1,14,2.73,20.73,1.65,2.9-.47,8.5-.55,11.48-1.3C800.81,703.56,808.92,698.57,810.94,692.34Z"/><path class="cls-28" d="M553.26,778.57c1.57,7.1,6.79,12.25,13.94,16,11.37,5.94,27.61,8.27,41.64,9,291.94,16,584.84,15.21,877.45,14.37,85.27-.24,170.87-.51,255.29-10.28a1101.87,1101.87,0,0,0,214.21-46.57c8-2.59,16.22-5.49,21.46-11,5.76-6.07,6.81-14.18,7.65-21.83,5.26-48.44,14.17-110.21-15.46-155-24.82-37.51-102.22-31.53-149-33-31.88-1-63.3,3.86-94.76,8.73-21.52,3.34-43.05,6.67-64.79,8.11-59.73,3.93-120.27-6.5-179.53.73-45.21,5.52-87.58,21.07-131.81,30.5a621.27,621.27,0,0,1-66,10.07q-4.25.44-8.51.84-14,1.32-28.09,2.29c-8.79.62-17.6,1.16-26.4,1.68-34.45,2-69,3.5-103.26,6.87-70.16,6.91-138.49,21.67-205.87,39.37C870,660.26,828.9,672.25,788,684.21l-44.51,13-143.81,42C576.73,746,549,759,553.26,778.57Z"/><path class="cls-29" d="M1294.61,770.37s-242.85-44.89-362-48.63S776.84,723,776.84,723s65.68-28.68,134.41-38.66c-68.73,0-135.93,20-135.93,20s174.12-58.61,268.81-68.59c-154.26,16.21-491.81,124.7-491.81,124.7L821.13,829,1258,791.57Z"/><path class="cls-29" d="M1082.78,662.71q1.16,1.4,2.26,2.82c1.42,1.84,2.81,3.65,4,5.5,5,3.19,5.69,7.57,7.92,11.42,4.21.74,8.34,1.69,12.2,2.67a69.08,69.08,0,0,1,11,4c9-1.48,18.5-2.24,27.39,0a107.19,107.19,0,0,1,17.11,6h.23c37.68-.83,81.46,12.47,127.29,17.46-15.27,2.49-46.84,5-46.84,5s67.21-1.66,126.27,7.48a246.71,246.71,0,0,1,29.49,6.73c4.13.23,8.26.57,12.36,1.07,7.34.91,14.47,2.59,21.78,3.6,1.7.23,3.4.43,5.1.67l.47.08.44,0q3.51.24,7,.53a62.43,62.43,0,0,1,19.46,4.42c7.14,3,13.3,7.63,19.3,11.89a167.82,167.82,0,0,0,17,11c7.69,4.3,16.49,7.89,23.33,13.07q3.07,2.32,5.93,4.76c25.56,1.26,113.56,2.37,268.06-28-205.69-59-427.68-48.22-427.68-48.22s2-7.48,59.06-11.64c-40.73-4.16-86.55-5-135.43-3.33s-97.76-10.81-134.41-15.8-25.46-12.47-25.46-20.78S1169,636,1196.48,626.9s49.9-13.3,67.21-16.63c9.1-1.75,15.67-7.18,19.86-11.92q-4.25.44-8.51.84-14,1.32-28.09,2.29c-8.79.62-17.6,1.16-26.4,1.68-3.35,1.95-6.83,3.73-10.49,5.41-7.46,3.44-14.79,7.27-22.91,9.63-4.79,1.39-10,1.23-15,1.6s-9,1.32-13.42.71c-7.91.34-15.41,4.57-22.1,7.6-6.93,3.13-13.49,6-21.21,7.57-6.24,1.27-13.83,2.62-18,7-4.46,4.76-7.42,9.39-13.69,12.89-.42.23-.86.44-1.28.66A35.27,35.27,0,0,1,1082.78,662.71Z"/><path class="cls-13" d="M911.4,649.39c34.23-7,72.35-14.05,112-20,138.49-20.78,223,2.49,288.17-12.47s110-23.28,110-23.28-21.38-1.66-64.15,6.65c116.08-44.9,205.69-39.91,278-37.41,34.23,1.18,66.18-6,90.33-13.94-21.52,3.34-43.05,6.67-64.79,8.11-59.73,3.93-120.27-6.5-179.53.73-45.21,5.52-87.58,21.07-131.81,30.5a621.27,621.27,0,0,1-66,10.07q-4.25.44-8.51.84-14,1.32-28.09,2.29c-8.79.62-17.6,1.16-26.4,1.68-34.45,2-69,3.5-103.26,6.87C1047.11,616.93,978.78,631.69,911.4,649.39Z"/><path class="cls-30" d="M553.26,778.57c1.57,7.1,6.79,12.25,13.94,16,40.56.82,81.5-.75,121.92-1.71,98.71-2.36,197.6-2.18,296.27-5.29,51.91-1.63,100.38,1.47,152.15,3.83,43.67,2,87.3,3.09,130.93,5.94,31.6,2.06,62.89,8.36,94.56,9.29,47.27,1.41,100.85,0,146.36-10.73,13.1-3.08,29.42-7.86,38.72-15.85,4.6-4,4.61-9.68,16.84-18.39-32.74-13.65-61.68-28-97.65-36-19.23-4.27-39-4.52-58.21-8.64-13.47-2.88-26.37-8.51-39.63-11.27-15.6-3.25-36.13-2.43-52.2-4.06-18.35-1.85-38.92-6.53-57.4-4.92,11.21,1.17,24.29,6.5,36.65,8.45,8.29,1.31,11.21.94,18.81,4.06,5.51,2.26,10.26,7.23,16.59,8.7,6.86,1.59,12.24-.23,19.67,2.22,5.77,1.91,7.21,6.39,12.89,9,9.14,4.27,12.62,1.27,17.2,8.67,3.1,5,4.05,16.31,6.32,22.07-5.19-2.89-8.13-1.36-13.87-1.46-21-.37-42.21-1.21-63.38-3-9.91-.86-17.49-.47-26.93-3.82-4.15-1.47-6.06-5.35-9.73-6.32-8.5-2.23-19.76,1.89-28.43.12-11.59-2.36-18.36-12.33-30.53-15.08-9.95-2.24-23,.52-33.33-.22-11.72-.85-21.28-4.34-32.39-6.63-18.78-3.88-37.53,4.24-55.52,2-9.2-1.13-21.54-9.52-32.14-11.4-16.62-2.94-34,4-51,2.35-11-20.35-64.69-12.91-83-6.42-20.7,7.33-25.52,11.1-49.3,9.71-24.35-1.42-47.81,3.91-72,4.46,2.76-7.08-29.8-15.26-38.54-12.75-.21-9.2-7.39-5.69-14-8.54a89.23,89.23,0,0,1-10.45-5.8l-143.81,42C576.73,746,549,759,553.26,778.57Z"/><path class="cls-31" d="M1143.19,687c67.21,10,317.7,30.49,407.31,75.38s274.25,0,274.25,0-209.33-34.32-391-54.31c-181.25-20-334-18.85-307.52-50.44,24.27-29,120.41-31.38,148.81-58.47q-14,1.32-28.09,2.29c-14.67,6.23-40.74,14.34-86.1,24.59C1059,651.57,1076,677.06,1143.19,687Z"/><path class="cls-32" d="M-11.62,686.31C-9.39,699.82,7,698,19.36,702.92c13.23,5.2,20.37,14.18,36.93,12,8.64-1.15,6.35-1.52,15.72,1.35,6.54,2,12.77,2.88,19.86,1.73,10.57-1.71,11.89-8,18.26-13.14,1.25-1,4,.17,5-.95,1.18-1.37-.4-4.47.72-5.6,2.18-2.18,6.38-1.42,8.57-3.58a4.36,4.36,0,0,0,.34-.37c1.16-1.47.33-5.77-1.8-9.8a25,25,0,0,0-1.35-2.23,3.14,3.14,0,0,0,2.86-.39c5.05-3,9.68-16.67-.3-17.07,1.86-6.83-7.49-4.61-5.95-11.8-5.09.84-15.4-6.27-16.24,1.71-.4-4.08-8.22-5.36-12.1-3.88,1.1-4.29,10.51-15.79-.88-15.39.94-3.2-.51-5.87-4.86-6,0-3.66-3.5-14.05-10-6.76.65-4.53-4.4-14.56-10.37-8.53-1.11-5.62-6.25-4.42-10-2.66-2.07,1-1.36,3.7-3.24,4.76-1.14.64-6.33.27-7.57.54.26,1.82.64,7.22-.83,8.65s-4.83-.2-5.89.83c-2.64,2.53-1.86,9.74-8.49,6.69.29,3.16.67,6.94-4.11,6.49-1.48-2.68-5.38-2.6-7.58-.78-5.75-2.7-11.89-1.18-9.83,4.84a32.08,32.08,0,0,0-4.92-.06A7.26,7.26,0,0,0-3,644.9c-3.28,3.06,1.05,6.1-.38,8.75-1.54,2.84-7,2.42-8.3,6-1.77,4.94,4.09,8.06,4.89,12.4C-13,673.82-12.39,681.68-11.62,686.31Z"/><path class="cls-33" d="M1.34,643.49A32.14,32.14,0,0,1,5,644.8a67.6,67.6,0,0,1,9.34,4.75c1.76-12.17,16.08-3.89,23.86-5.89a16.71,16.71,0,0,0,2.29,1.88c.93-3.45,1.72-8.34,6.6-8.72a36.56,36.56,0,0,0,2.29-5.12c-6.18-4.05.46-12.21,6.69-12,.08.37.16.75.24,1.12A28.75,28.75,0,0,1,62.74,622c8.16-2.76,7.66,6.47,14.6,5.72-.37,1.78.61,4,.25,5.81,1.35.38,2.48,1.21,3.24,1.45-2.12,1.57-5,1.77-8.19,1.41.58,2.18-10.55,14.23-.25,10.66,2.57.72,4.14,1.57,5.15,3.82,1.57-.31,4,.51,5.53.2.15,2.7.11,5.44.11,8.16.1-.19.31-.26.64-.21,1.27,5.73-14.25,4.56-7,11.86,5.5-1.43,17.35-1.17,15.5-8.59,1.23.41,3.6.22,4.72.6-3.35-5.85,5.74-4.82,10.64-4.48-.25.31-.43,1.65-.78,2.28a11.58,11.58,0,0,1,1.66-1.8c5.33,2.46,7,7.26,6.67,12,2.48-2.52,4.88-2.64,5.66.67,7.12,2.36,5.73,6.55,3.6,10.43,5.05-3,9.68-16.67-.3-17.07,1.86-6.83-7.49-4.61-5.95-11.8-5.09.84-15.4-6.27-16.24,1.71-.4-4.08-8.22-5.36-12.1-3.88,1.1-4.29,10.51-15.79-.88-15.39.94-3.2-.51-5.87-4.86-6,0-3.66-3.5-14.05-10-6.76.65-4.53-4.4-14.56-10.37-8.53-1.11-5.62-6.25-4.42-10-2.66-2.07,1-1.36,3.7-3.24,4.76-1.14.64-6.33.27-7.57.54.26,1.82.64,7.22-.83,8.65s-4.83-.2-5.89.83c-2.64,2.53-1.86,9.74-8.49,6.69.29,3.16.67,6.94-4.11,6.49-1.48-2.68-5.38-2.6-7.58-.78-5.75-2.7-11.89-1.18-9.83,4.84A32.08,32.08,0,0,0,1.34,643.49Z"/><path class="cls-34" d="M109.64,707.55c6.8,1.05-2.75,16.47,7.54,21.38,6.48,3.1,15.86,4.26,23,6.74,3.81,1.33,6.47,2.78,10.81,2.8,3.95,0,7.57-2.54,11-2.52,5.79,0,10.79,6,17.68,5,5-.67,6-3.43,9.8-4.64,5.62-1.77,14.78-.26,17.76-4.78a6.63,6.63,0,0,0,1-3.88c2-5.16,8.12-16.07,5-21.39-1-1.63-4.5-2-6-3.46-2.89-2.76-1.9-3.44-3.87-5.92-1.43-1.81-.72-2.54-2.48-4.34-.82-.83-5.13-2.27-6.47-3.26-1.08-.79.92-3.1-.5-4-2.69-1.77-7.38-1.25-10.09,0,.32-4.76-5.34-10.85-11.56-9.19.11-8.59-8.15-7-14.51-3.13-1.18-6.88-10.77-6.15-14.89-1.53a11.51,11.51,0,0,0-2.1-1.93c-5.57-3.86-9.09,4.14-12.53,6.08-4.29,2.43-9.35-1.53-7.52,6C109.65,682.75,107.83,699.94,109.64,707.55Z"/><path class="cls-35" d="M152.62,678.4c4.36-3.44,11.57-2.47,12.44,3.18,5.39-1.94,10.84,0,10.61,5.3,9.8-1.82,11.21,9.92,17.23,13.2,7.9-7.62,11.2,3.83,8.91,8.81,14-2.49-1.41,12.21.13,17a8.61,8.61,0,0,0,5.33,5.7,6.63,6.63,0,0,0,1-3.88c2-5.16,8.12-16.07,5-21.39-1-1.63-4.5-2-6-3.46-2.89-2.76-1.9-3.44-3.87-5.92-1.43-1.81-.72-2.54-2.48-4.34-.82-.83-5.13-2.27-6.47-3.26-1.08-.79.92-3.1-.5-4-2.69-1.77-7.38-1.25-10.09,0,.32-4.76-5.34-10.85-11.56-9.19.11-8.59-8.15-7-14.51-3.13-1.18-6.88-10.77-6.15-14.89-1.53a11.51,11.51,0,0,0-2.1-1.93,7.85,7.85,0,0,0-2.6,3.64C135.87,684,147.87,671.14,152.62,678.4Z"/><path class="cls-36" d="M297.25,757.42c-29.32-18-69.63-32.25-102.47-46.28a561.32,561.32,0,0,0-86.62-28.75c-28.54-7-56.08-9.28-83-19.74-27.21-10.56-53.06-19.48-83.72-20-31.49-.49-53.89-10.15-83.88-15.31-40.25-6.93-75.13,2-115.22.34-31.21-1.32-54.31-8.9-83.46-17.43-38.14-11.16-75.61-9.13-114.61-15.89-18.1-3.14-34-10.11-51.77-13.19-27.68-4.79-58.76-7.43-86.87-9.42-31.54-2.23-63.74.8-95.24,1.09-24.12.23-48.13-1.73-71.6,3.71,1.84,21.2-4.69,40.21-6.76,61.06-2.43,24.42,5.75,45.94,17.85,67.83,26.42,47.82,115.43,26.36,162,54.44,17.95,10.82,28.2,27.88,45,39.75,33.08,23.38,79.52,31.84,122.15,26.3,29.27-3.8,56.31-14.56,85-20.2,22.7-4.46,45.71-6.11,68.91-7.6,59.42-3.82,118.78-8.17,178.23-11.47C-45,784.28-1,778.82,43,778.53c31.12-.2,59.91,4.89,90.51,8.25,28.7,3.15,57.58,2.31,86.3,5,15.52,1.47,34.65,8,50.39,5.48,27.59-4.49,16.19-21.87,27.27-34.88C296.59,760.77,295.49,761.38,297.25,757.42Z"/><path class="cls-37" d="M-776.48,591.57c10.12-8.06,49-2.49,64.22-2.49,20.17,0,39.66-.49,59.62-2.49,24.65-2.48,47.85-4.89,73-3.52,7.56,25.14,54.18,16.58,75.84,22.22,41.81,10.9,87.57,20,130.47,35.23-10.07,2-29.65-3.94-41.25-5.92-16.41-2.81-29-3.64-45.78-4.36s-30.71-5.92-47.6-7.2c-19.83-1.5-42.64,1.76-60.64-2.49,31.07,2.46,59.93,22.78,92.28,25.89,14.86,1.43,27.77-1.82,42.46,0,15.44,1.93,32.84,3.84,48.15,7.79,7.44,1.92,15.63,6.83,23.55,7.26,13.3.73,25.8-5.69,38.8-7.6,15.46-2.27,28.5-3.16,43.73-1.22,8.29,1.05,18.53,5,27.26,2.31,4.3-1.33,7.18-6.71,12-8.54,9.55-3.67,27.44-3.88,37.07-.75,7.68,2.49,8.72,5.45,18,7A100.77,100.77,0,0,0-167,653.95c9.58-.3,28.3-4.29,30.28,7.27-15.65.72-20.59,15.28-2.82,17.64,8.06,1.07,16.2-3.75,24.2-4.74,13.87-1.72,22.14,4.62,34.6,4.74,12.11.11,24-5.29,37.33-5,11,.25,22.89.77,33.78,2,16.35,1.82,30.41,5.67,45.67,6.22,14.13.51,26,8,40.39,11,25.77,5.5,50.59,6.29,74.25,17.84,18.85,9.2,31.52,23.11,48.8,32.92-15.85-2.52-28.66-1.35-44.32,2.46-33.66,8.2-67.29,6.48-101.59,11.34-40.39,5.72-77.38,4.34-118.33,2.67-35.3-1.44-69.44,2.44-105-.33-87.77-6.85-175.73-1.29-263.78-6.26-58-3.27-114.53-11.37-171.8-18.77-32.79-4.24-77.38.81-106.53-12.87-28.71-13.48-33-40-47.61-62-14.39-21.64-17.23-40.28-18.18-62.53a142.35,142.35,0,0,1,22.53,5.18Z"/></g></g><path class="cls-38" d="M941,100.89l-3.44-.14-9.68,251,3.44.13Z"/><path class="cls-38" d="M950.85,126.55H958V324.42h-7.19Z"/><g class="cls-39"><path class="cls-40" d="M951.8,130.06h1.13V319.81H951.8Z"/></g><path class="cls-41" d="M924.23,97.91c0-17.32,13.52-31.37,30.21-31.37s30.21,14,30.21,31.37-13.52,31.37-30.21,31.37S924.23,115.23,924.23,97.91Z"/><path class="cls-42" d="M928.24,100.59c0-15,11.73-27.2,26.2-27.2s26.2,12.18,26.2,27.2-11.76,28.7-26.22,28.7S928.24,115.62,928.24,100.59Z"/><path class="cls-43" d="M935.67,116.21c3.89,7.45,10.75,12.42,18.6,12.42s14.73-5,18.61-12.42a65.71,65.71,0,0,1-37.22,0Z"/><g class="cls-39"><path d="M945.22,124.64a14,14,0,0,0,19.22,0,56.15,56.15,0,0,1-19.22,0Z"/></g><g class="cls-39"><path d="M977,106.49s-2.1,9-7.53,14.9c-7,7.58-13.59,7.24-13.59,7.24s3-1.33,4.65-5.7c2.41-6.29,1.37-16.38,1.37-16.38Z"/></g><path class="cls-44" d="M924.06,42.74h60.77v60.17H924.06Z"/><g class="cls-39"><path class="cls-40" d="M926.74,46.67h8.14V98.49h-8.14Z"/></g><g class="cls-39"><path d="M950.86,45.52H983.5V99.29H950.86Z"/></g><g class="cls-39"><path d="M963.09,45.52H983.5V99.29H963.09Z"/></g><g class="cls-39"><path d="M972.59,46.63h9.31V97.7h-9.31Z"/></g><g class="cls-39"><path class="cls-40" d="M927.93,48.2h1.81V96.59h-1.81Z"/></g><g class="cls-39"><path class="cls-40" d="M928.53,62.57H975.9v1.53H928.53Z"/></g><g class="cls-39"><path class="cls-40" d="M928.53,83.33H975.9v1.53H928.53Z"/></g><path class="cls-45" d="M954.44,22l33.62,21.8H920.82Z"/><path class="cls-38" d="M920.84,43.79H988v1H920.84Z"/><g class="cls-39"><path class="cls-40" d="M954.35,23.36,925.16,42.75h10.41Z"/></g><g class="cls-39"><path d="M955.07,23.37l30,19.85-26.37,0Z"/></g><g class="cls-39"><path d="M958.5,26.69l23.18,15.75H971.46Z"/></g><g class="cls-39"><path class="cls-40" d="M929.14,41.22l13.21-8.73-8.5,8.79Z"/></g><path class="cls-38" d="M1001.48,236v-1.28h-.15L986,103.14h1.86v-2.91H921v2.91h1.42L893.5,351.21l3.42.4L910.17,238h52.51L967.3,352.8l3.44-.13L966.13,238h32.11l13.38,115.07,3.42-.4ZM925.9,103.14h31.34l2.36,58.63H919.06ZM910.55,234.74,918.68,165h41.05l2.81,69.73Zm50.14-131.61h21.86l6.82,58.63H963.05ZM966,234.74,963.18,165h26.56l8.11,69.73Z"/><path class="cls-12" d="M898,339s-16,2-14,10,0,15.1,71.5,13.55S1046,349,1021,339,904,338,898,339Z"/></g></g></svg>